Coordinates
version=1
nRows=10
nColumns=28
inDegrees=yes

Units are S.I. units (second, meters, Newtons, ...)
Angles are in degrees.

endheader
time	pelvis_tilt	pelvis_list	pelvis_rotation	pelvis_tx	pelvis_ty	pelvis_tz	hip_flexion_r	hip_adduction_r	hip_rotation_r	knee_angle_r	ankle_angle_r	subtalar_angle_r	mtp_angle_r	hip_flexion_l	hip_adduction_l	hip_rotation_l	knee_angle_l	socket_flexion	socket_adduction	socket_rotation	socket_tx	socket_ty	socket_tz	foot_flex	lumbar_extension	lumbar_bending	lumbar_rotation
      0.26666667	     -3.59929165	      2.46123105	     -0.37680633	     -0.40585772	      0.97303813	      0.23784693	     20.37616516	     -3.68962134	      0.99340358	    -67.27445783	    -12.12204330	    -15.47945901	     18.59099526	     19.72803974	      4.52917421	     -2.06249061	    -32.36127334	     -4.23119258	     -0.23917270	      6.99529645	      0.01179043	     -0.00261861	     -0.02000000	      4.95128427	     -6.16032259	     -3.57939073	     -8.15678416
      0.27083333	     -3.51820611	      2.37050441	     -0.38691513	     -0.40005677	      0.97414947	      0.23790791	     21.04729750	     -3.63105649	      1.00738457	    -67.27570699	    -11.37362975	    -15.96755727	     18.41397419	     18.99128430	      4.39688419	     -2.14269815	    -32.20300763	     -4.50295391	     -0.27611745	      7.14826929	      0.01084862	     -0.00286529	     -0.02000000	      4.99135476	     -6.24627787	     -3.45668207	     -8.38531678
      0.27500000	     -3.43680340	      2.27705341	     -0.38722713	     -0.39426934	      0.97528523	      0.23798423	     21.69319918	     -3.55292112	      1.03444105	    -67.21019645	    -10.63802658	    -16.45831477	     18.22302247	     18.23820456	      4.26449783	     -2.21627907	    -32.03442628	     -4.78431567	     -0.33408766	      7.30933599	      0.00978089	     -0.00309358	     -0.02000000	      5.02281796	     -6.33425648	     -3.34197432	     -8.62481807
      0.27916667	     -3.36746873	      2.17867124	     -0.30945333	     -0.38898948	      0.97620847	      0.23771089	     22.43038736	     -3.54096518	      0.98284636	    -67.18187476	    -10.34361465	    -16.65205560	     18.16756722	     17.68767876	      4.19421073	     -2.18313735	    -31.92069040	     -4.92412284	     -0.43255928	      7.48289741	      0.00968372	     -0.00306723	     -0.02000000	      5.06113315	     -6.49555085	     -3.20484990	     -8.71011816
      0.28333333	     -3.18867953	      2.07787918	     -0.40526160	     -0.38304740	      0.97762538	      0.23826692	     22.87158485	     -3.28139861	      1.21358030	    -66.94099442	     -9.08033560	    -17.52612055	     17.76742644	     16.69479965	      3.97313791	     -2.37584758	    -31.71573347	     -5.34545036	     -0.43512467	      7.63122206	      0.00787412	     -0.00340845	     -0.02000000	      5.04153513	     -6.67421115	     -3.05540438	     -9.20283485
      0.28750000	     -3.16815811	      1.96217681	     -0.35221711	     -0.37690799	      0.97874425	      0.23820134	     23.45193295	     -3.25983235	      1.07969441	    -66.58984373	     -8.58699928	    -17.87639295	     17.55620378	     15.91835601	      3.82972775	     -2.45210769	    -31.48997362	     -5.66424781	     -0.53223931	      7.83023166	      0.00649054	     -0.00364226	     -0.02000000	      5.07518434	     -6.63286146	     -2.93324166	     -9.35722782
      0.29166667	     -2.81370200	      1.78890287	     -0.43455101	     -0.37146660	      0.98017639	      0.23861608	     23.76298480	     -2.95922893	      1.23904648	    -66.33101556	     -7.71860127	    -18.56174450	     16.81828276	     14.87518244	      3.54395194	     -2.65941851	    -31.42462346	     -6.08863796	     -0.56895650	      8.04284373	      0.00514889	     -0.00390933	     -0.02000000	      5.06682129	     -7.11450713	     -2.71971590	     -9.79340483
      0.29583333	     -2.86312918	      1.69369004	     -0.31707947	     -0.36537958	      0.98119558	      0.23840359	     24.36161275	     -2.96765401	      1.09543778	    -65.85383423	     -7.30693596	    -18.81737710	     16.64468106	     14.18077083	      3.45179286	     -2.69395812	    -31.18715213	     -6.39729969	     -0.70100491	      8.26008281	      0.00373473	     -0.00399403	     -0.02000000	      5.07718855	     -7.00233968	     -2.59788874	     -9.86628508
      0.30000000	     -2.73428704	      1.53878847	     -0.32265470	     -0.35975471	      0.98235764	      0.23853784	     24.80943944	     -2.71126087	      1.23845850	    -65.40273044	     -6.42815032	    -19.36341307	     16.23157527	     13.36604958	      3.25119163	     -2.77881261	    -31.02898182	     -6.74210376	     -0.79568742	      8.43499898	      0.00253672	     -0.00411946	     -0.02000000	      5.03946839	     -7.17752106	     -2.37645079	    -10.17982067
      0.30416667	     -2.76155655	      1.44316522	     -0.21870879	     -0.35411586	      0.98312713	      0.23833799	     25.46973923	     -2.72268719	      1.09671130	    -64.98392538	     -6.12343479	    -19.56104357	     16.10898971	     12.73758932	      3.15583998	     -2.80299973	    -30.81484978	     -6.99328576	     -0.90682414	      8.62425284	      0.00148594	     -0.00423725	     -0.02000000	      5.07921306	     -7.17119375	     -2.24691035	    -10.26547913
